<?xml version="1.0" encoding="UTF-8"?>
<svg xmlns="http://www.w3.org/2000/svg" xmlns:xlink="http://www.w3.org/1999/xlink" width="96pt" height="96pt" viewBox="0 0 96 96" version="1.1">
<g id="surface1">
<path style="fill-rule:evenodd;fill:rgb(20%,60%,40%);fill-opacity:1;stroke-width:3;stroke-linecap:butt;stroke-linejoin:bevel;stroke:rgb(0%,0%,0%);stroke-opacity:1;stroke-miterlimit:4;" d="M 182.440812 242.215924 L 63.686336 272.689435 L 74.625545 387.530011 L 98.03151 412.090436 L 98.03151 412.125633 L 98.059668 412.125633 L 212.090714 384.467877 L 212.125911 384.404523 L 212.125911 269.563946 Z M 182.440812 242.215924 " transform="matrix(0.554913,0,0,0.554913,-28.566957,-133.604149)"/>
<path style=" stroke:none;fill-rule:evenodd;fill:rgb(0%,40%,20%);fill-opacity:1;" d="M 59.351562 9.789062 C 57.535156 9.609375 57.320312 12.035156 56.300781 12.5625 C 52.257812 11.996094 47.738281 11.128906 43.746094 12.285156 C 41.578125 14.328125 44.382812 16.777344 46.46875 17.195312 C 51.105469 18.769531 55.660156 23.527344 60.878906 21.390625 C 63.011719 20.359375 61.792969 17.203125 63.304688 16.03125 C 65.480469 16.445312 69.675781 16.109375 69.339844 13.066406 C 67.703125 9.734375 62.796875 13.703125 61.191406 10.484375 C 60.660156 10.011719 60.085938 9.660156 59.351562 9.789062 Z M 56.578125 16.570312 C 56.714844 18.289062 52.984375 16.054688 55.277344 16.476562 C 55.5625 16.617188 56.488281 16.246094 56.578125 16.570312 Z M 56.578125 16.570312 "/>
<path style=" stroke:none;fill-rule:evenodd;fill:rgb(0%,40%,20%);fill-opacity:1;" d="M 36.808594 34.257812 C 31.171875 34.925781 26.941406 40.378906 27.773438 46.03125 C 27.617188 51.664062 32.4375 55.378906 36.203125 58.792969 C 41.050781 62.929688 49.085938 60.390625 51.046875 54.441406 C 54.460938 47.082031 48.875 39.03125 42.339844 35.730469 C 40.660156 34.796875 38.75 34.148438 36.808594 34.257812 Z M 37.328125 40.742188 C 41.324219 41.351562 44.945312 45.085938 45.496094 49.066406 C 45.699219 52.15625 42.183594 54.929688 39.425781 52.917969 C 35.707031 51.199219 32.035156 46.859375 33.53125 42.511719 C 34.464844 41.449219 35.921875 40.75 37.328125 40.742188 Z M 37.328125 40.742188 "/>
<path style=" stroke:none;fill-rule:evenodd;fill:rgb(0%,40%,20%);fill-opacity:1;" d="M 82.257812 44.089844 C 79.246094 48.449219 80.78125 54.160156 80.113281 59.125 C 80.035156 61.851562 79.980469 64.585938 80.195312 67.308594 C 83.378906 69.128906 83.59375 64.292969 84.964844 62.453125 C 86.402344 59.738281 88.570312 56.839844 88.226562 53.628906 C 86.835938 51.597656 84.699219 54.582031 84.238281 56.039062 C 84.492188 52.082031 85.441406 47.597656 83.890625 43.917969 C 83.347656 43.972656 82.804688 44.03125 82.257812 44.089844 Z M 82.257812 44.089844 "/>
<path style=" stroke:none;fill-rule:evenodd;fill:rgb(0%,40%,20%);fill-opacity:1;" d="M 12.097656 50.316406 C 9.488281 55.078125 13.460938 60.101562 13 65.089844 C 13.457031 68.808594 14.507812 73.53125 18.078125 75.277344 C 21.101562 75.199219 21.191406 70.835938 20.714844 68.574219 C 19.019531 62.3125 19.449219 54.597656 14.09375 50.003906 C 13.375 49.5625 12.726562 49.777344 12.097656 50.316406 Z M 16.535156 65.367188 C 17.023438 66.101562 17.691406 68.441406 17.316406 68.523438 C 16.863281 67.613281 16.429688 66.152344 16.535156 65.367188 Z M 16.535156 65.367188 "/>
<path style=" stroke:none;fill-rule:evenodd;fill:rgb(0%,40%,20%);fill-opacity:1;" d="M 68.300781 78.703125 C 65.179688 80.269531 61.789062 81.085938 58.414062 81.632812 C 57.582031 79.175781 54.347656 81.425781 52.640625 81.789062 C 50.179688 83.082031 46.296875 83.699219 45.601562 86.679688 C 47.832031 90.453125 52.667969 87.378906 55.554688 86.246094 C 59.851562 85.765625 64.550781 85.261719 68.003906 82.257812 C 69.601562 81.84375 72.65625 80.195312 70.691406 78.339844 C 69.765625 78 69.125 78.25 68.300781 78.703125 Z M 68.300781 78.703125 "/>
<path style=" stroke:none;fill-rule:evenodd;fill:rgb(100%,100%,100%);fill-opacity:1;" d="M 59.65625 10.886719 C 57.261719 10.871094 58.40625 14.796875 55.417969 13.402344 C 51.820312 13.085938 48.164062 12.605469 44.558594 13.035156 C 42.285156 15.335938 48.257812 16.257812 49.847656 17.617188 C 53.148438 18.875 56.136719 21.6875 59.90625 20.644531 C 62.667969 19.683594 59.875 13.933594 64.617188 15.03125 C 66.417969 15.425781 70.453125 13.636719 66.925781 12.652344 C 64.320312 12.859375 61.453125 13.707031 60.175781 10.957031 Z M 57.542969 15.34375 C 58.34375 18.527344 55.785156 19.234375 53.457031 17.1875 C 51.710938 16.347656 47.648438 15.289062 51.867188 15.414062 C 53.757812 15.378906 55.648438 15.367188 57.542969 15.34375 Z M 57.542969 15.34375 "/>
<path style=" stroke:none;fill-rule:evenodd;fill:rgb(100%,100%,100%);fill-opacity:1;" d="M 37.011719 35.355469 C 33.234375 35.976562 29.824219 38.480469 29.089844 42.453125 C 28.578125 46.117188 28.761719 50.304688 31.789062 52.898438 C 34.6875 55.972656 37.890625 60.230469 42.660156 59.65625 C 48.210938 59.53125 51.449219 53.234375 50.976562 48.265625 C 49.96875 44.050781 47.476562 40.207031 43.722656 37.9375 C 41.777344 36.519531 39.484375 35.292969 37.011719 35.355469 Z M 37.078125 39.601562 C 40.929688 39.8125 44.113281 42.976562 45.816406 46.242188 C 48.304688 50.128906 44.558594 56.367188 39.851562 54.296875 C 35.195312 52.574219 30.898438 47.496094 32.304688 42.308594 C 33.28125 40.746094 35.277344 39.769531 37.078125 39.601562 Z M 37.078125 39.601562 "/>
<path style=" stroke:none;fill-rule:evenodd;fill:rgb(100%,100%,100%);fill-opacity:1;" d="M 83.144531 44.75 C 80.800781 47.609375 81.808594 52.175781 81.300781 55.730469 C 81.246094 59.558594 81 63.40625 81.304688 67.222656 C 82.746094 65.238281 83.648438 61.914062 85.414062 59.492188 C 86.238281 58.242188 88.65625 51.542969 86.121094 54.949219 C 84.765625 56.972656 84.050781 60 82.027344 61.238281 C 83.488281 56.101562 83.796875 50.625 83.4375 45.316406 L 83.3125 44.894531 Z M 83.144531 44.75 "/>
<path style=" stroke:none;fill-rule:evenodd;fill:rgb(100%,100%,100%);fill-opacity:1;" d="M 13.0625 50.859375 C 10.871094 54.402344 13.921875 58.695312 13.894531 62.539062 C 14.128906 66.722656 14.820312 71.597656 18.269531 74.398438 C 21.238281 72.585938 19.113281 66.839844 18.515625 63.695312 C 18.09375 59.386719 17.054688 54.949219 14.230469 51.527344 C 13.921875 51.214844 13.546875 50.824219 13.0625 50.859375 Z M 14 53.925781 C 15.265625 54.851562 18.511719 60.671875 15.640625 60.183594 C 14.253906 58.621094 13.15625 55.957031 14 53.925781 Z M 15.835938 63.066406 C 18.039062 63.972656 19.765625 70.019531 17.488281 70.675781 C 15.730469 68.859375 14.773438 65.300781 15.835938 63.066406 Z M 15.835938 63.066406 "/>
<path style=" stroke:none;fill-rule:evenodd;fill:rgb(100%,100%,100%);fill-opacity:1;" d="M 69.980469 79.1875 C 66.710938 80.613281 63.367188 82.148438 59.78125 82.429688 C 56.988281 82.917969 53.488281 85.792969 51.078125 84.859375 C 52.269531 83.34375 58.1875 82.398438 57.1875 81.480469 C 53.46875 82.503906 49.757812 83.949219 46.570312 86.144531 C 48.246094 89.410156 53.40625 85.445312 56.351562 84.855469 C 60.316406 84.851562 63.914062 84.023438 67.132812 81.492188 C 67.710938 81 71.210938 80.121094 69.980469 79.1875 Z M 69.980469 79.1875 "/>
<path style="fill:none;stroke-width:1;stroke-linecap:butt;stroke-linejoin:bevel;stroke:rgb(0%,0%,0%);stroke-opacity:1;stroke-miterlimit:4;" d="M 63.672257 272.675356 L 108.203426 392.985537 L 98.045589 412.125633 L 74.611466 387.515932 Z M 63.672257 272.675356 " transform="matrix(0.554913,0,0,0.554913,-28.566957,-133.604149)"/>
<path style="fill:none;stroke-width:1;stroke-linecap:butt;stroke-linejoin:bevel;stroke:rgb(0%,0%,0%);stroke-opacity:1;stroke-miterlimit:4;" d="M 63.672257 272.675356 L 108.203426 392.985537 L 165.236547 371.89553 L 189.846248 298.847801 Z M 63.672257 272.675356 " transform="matrix(0.554913,0,0,0.554913,-28.566957,-133.604149)"/>
<path style="fill:none;stroke-width:1;stroke-linecap:butt;stroke-linejoin:bevel;stroke:rgb(0%,0%,0%);stroke-opacity:1;stroke-miterlimit:4;" d="M 63.672257 272.675356 L 182.419694 242.208885 L 212.111832 269.549868 L 189.846248 298.847801 Z M 63.672257 272.675356 " transform="matrix(0.554913,0,0,0.554913,-28.566957,-133.604149)"/>
<path style="fill:none;stroke-width:1;stroke-linecap:butt;stroke-linejoin:bevel;stroke:rgb(0%,0%,0%);stroke-opacity:1;stroke-miterlimit:4;" d="M 165.116878 371.958885 L 212.111832 384.390444 L 212.111832 269.549868 L 189.846248 298.847801 Z M 165.116878 371.958885 " transform="matrix(0.554913,0,0,0.554913,-28.566957,-133.604149)"/>
<path style="fill:none;stroke-width:1;stroke-linecap:butt;stroke-linejoin:bevel;stroke:rgb(0%,0%,0%);stroke-opacity:1;stroke-miterlimit:4;" d="M 98.038549 412.125633 L 108.203426 392.985537 L 165.236547 371.89553 L 212.083675 384.474916 Z M 98.038549 412.125633 " transform="matrix(0.554913,0,0,0.554913,-28.566957,-133.604149)"/>
</g>
</svg>
