<?xml version="1.0" encoding="UTF-8"?>
<svg xmlns="http://www.w3.org/2000/svg" xmlns:xlink="http://www.w3.org/1999/xlink" width="24pt" height="24pt" viewBox="0 0 24 24" version="1.1">
<g id="surface1">
<path style="fill-rule:evenodd;fill:rgb(20%,60%,40%);fill-opacity:1;stroke-width:3;stroke-linecap:butt;stroke-linejoin:bevel;stroke:rgb(0%,0%,0%);stroke-opacity:1;stroke-miterlimit:4;" d="M 182.440812 242.230003 L 63.700415 272.696474 L 74.625545 387.522971 L 98.024471 412.104514 L 98.024471 412.132672 L 98.052628 412.132672 L 212.090714 384.481956 L 212.118872 384.397483 L 212.118872 269.570986 Z M 182.440812 242.230003 " transform="matrix(0.138728,0,0,0.138728,-7.141739,-33.401037)"/>
<path style=" stroke:none;fill-rule:evenodd;fill:rgb(0%,40%,20%);fill-opacity:1;" d="M 14.839844 2.445312 C 14.382812 2.402344 14.328125 3.007812 14.074219 3.140625 C 13.0625 3 11.933594 2.78125 10.9375 3.070312 C 10.394531 3.582031 11.09375 4.195312 11.617188 4.296875 C 12.777344 4.691406 13.914062 5.882812 15.21875 5.347656 C 15.753906 5.089844 15.449219 4.300781 15.828125 4.007812 C 16.371094 4.113281 17.417969 4.027344 17.335938 3.265625 C 16.925781 2.433594 15.699219 3.425781 15.296875 2.621094 C 15.164062 2.503906 15.019531 2.414062 14.839844 2.445312 Z M 14.144531 4.140625 C 14.179688 4.570312 13.246094 4.011719 13.820312 4.121094 C 13.890625 4.152344 14.121094 4.0625 14.144531 4.140625 Z M 14.144531 4.140625 "/>
<path style=" stroke:none;fill-rule:evenodd;fill:rgb(0%,40%,20%);fill-opacity:1;" d="M 9.203125 8.5625 C 7.792969 8.730469 6.734375 10.09375 6.945312 11.507812 C 6.90625 12.914062 8.109375 13.84375 9.050781 14.699219 C 10.261719 15.730469 12.269531 15.097656 12.761719 13.609375 C 13.617188 11.769531 12.21875 9.757812 10.585938 8.933594 C 10.164062 8.699219 9.6875 8.535156 9.203125 8.5625 Z M 9.332031 10.1875 C 10.332031 10.339844 11.234375 11.269531 11.375 12.265625 C 11.425781 13.039062 10.546875 13.734375 9.855469 13.230469 C 8.925781 12.800781 8.007812 11.714844 8.382812 10.628906 C 8.617188 10.363281 8.980469 10.1875 9.332031 10.1875 Z M 9.332031 10.1875 "/>
<path style=" stroke:none;fill-rule:evenodd;fill:rgb(0%,40%,20%);fill-opacity:1;" d="M 20.566406 11.023438 C 19.8125 12.113281 20.195312 13.539062 20.027344 14.78125 C 20.007812 15.464844 19.996094 16.148438 20.050781 16.828125 C 20.84375 17.28125 20.898438 16.074219 21.242188 15.613281 C 21.601562 14.933594 22.140625 14.210938 22.054688 13.40625 C 21.710938 12.898438 21.175781 13.644531 21.058594 14.007812 C 21.125 13.019531 21.359375 11.898438 20.972656 10.980469 C 20.835938 10.992188 20.699219 11.007812 20.566406 11.023438 Z M 20.566406 11.023438 "/>
<path style=" stroke:none;fill-rule:evenodd;fill:rgb(0%,40%,20%);fill-opacity:1;" d="M 3.023438 12.578125 C 2.371094 13.769531 3.363281 15.027344 3.25 16.273438 C 3.363281 17.203125 3.628906 18.382812 4.519531 18.820312 C 5.273438 18.800781 5.296875 17.710938 5.179688 17.144531 C 4.753906 15.578125 4.863281 13.648438 3.523438 12.5 C 3.34375 12.390625 3.179688 12.445312 3.023438 12.578125 Z M 4.132812 16.339844 C 4.257812 16.527344 4.421875 17.109375 4.328125 17.128906 C 4.214844 16.902344 4.109375 16.539062 4.132812 16.339844 Z M 4.132812 16.339844 "/>
<path style=" stroke:none;fill-rule:evenodd;fill:rgb(0%,40%,20%);fill-opacity:1;" d="M 17.074219 19.675781 C 16.296875 20.066406 15.445312 20.273438 14.605469 20.410156 C 14.394531 19.792969 13.585938 20.355469 13.160156 20.445312 C 12.542969 20.769531 11.574219 20.925781 11.398438 21.667969 C 11.957031 22.613281 13.167969 21.84375 13.886719 21.5625 C 14.964844 21.441406 16.136719 21.316406 17 20.5625 C 17.398438 20.460938 18.164062 20.046875 17.671875 19.585938 C 17.441406 19.5 17.28125 19.5625 17.074219 19.675781 Z M 17.074219 19.675781 "/>
<path style=" stroke:none;fill-rule:evenodd;fill:rgb(100%,100%,100%);fill-opacity:1;" d="M 14.914062 2.722656 C 14.316406 2.71875 14.601562 3.699219 13.855469 3.351562 C 12.953125 3.269531 12.042969 3.152344 11.140625 3.257812 C 10.570312 3.832031 12.0625 4.0625 12.460938 4.40625 C 13.289062 4.71875 14.035156 5.421875 14.976562 5.160156 C 15.667969 4.921875 14.96875 3.484375 16.152344 3.757812 C 16.605469 3.855469 17.613281 3.410156 16.730469 3.164062 C 16.078125 3.214844 15.363281 3.425781 15.042969 2.738281 Z M 14.386719 3.835938 C 14.585938 4.632812 13.945312 4.808594 13.363281 4.296875 C 12.929688 4.085938 11.914062 3.820312 12.964844 3.855469 C 13.441406 3.84375 13.914062 3.84375 14.386719 3.835938 Z M 14.386719 3.835938 "/>
<path style=" stroke:none;fill-rule:evenodd;fill:rgb(100%,100%,100%);fill-opacity:1;" d="M 9.253906 8.839844 C 8.308594 8.992188 7.457031 9.621094 7.273438 10.613281 C 7.144531 11.53125 7.191406 12.578125 7.949219 13.222656 C 8.671875 13.992188 9.472656 15.058594 10.664062 14.914062 C 12.050781 14.882812 12.863281 13.308594 12.742188 12.066406 C 12.492188 11.011719 11.867188 10.050781 10.929688 9.484375 C 10.445312 9.128906 9.871094 8.824219 9.253906 8.839844 Z M 9.269531 9.902344 C 10.234375 9.953125 11.027344 10.746094 11.453125 11.558594 C 12.074219 12.53125 11.140625 14.09375 9.964844 13.574219 C 8.796875 13.144531 7.726562 11.875 8.078125 10.578125 C 8.320312 10.1875 8.820312 9.941406 9.269531 9.902344 Z M 9.269531 9.902344 "/>
<path style=" stroke:none;fill-rule:evenodd;fill:rgb(100%,100%,100%);fill-opacity:1;" d="M 20.785156 11.1875 C 20.199219 11.902344 20.453125 13.042969 20.324219 13.933594 C 20.3125 14.890625 20.25 15.851562 20.328125 16.804688 C 20.6875 16.308594 20.910156 15.476562 21.351562 14.875 C 21.558594 14.5625 22.164062 12.886719 21.53125 13.738281 C 21.191406 14.242188 21.011719 15 20.507812 15.308594 C 20.871094 14.023438 20.949219 12.65625 20.859375 11.328125 L 20.828125 11.222656 Z M 20.785156 11.1875 "/>
<path style=" stroke:none;fill-rule:evenodd;fill:rgb(100%,100%,100%);fill-opacity:1;" d="M 3.265625 12.714844 C 2.71875 13.601562 3.480469 14.675781 3.472656 15.632812 C 3.53125 16.679688 3.703125 17.898438 4.566406 18.601562 C 5.308594 18.148438 4.777344 16.710938 4.628906 15.925781 C 4.523438 14.847656 4.265625 13.738281 3.558594 12.882812 C 3.480469 12.804688 3.386719 12.707031 3.265625 12.714844 Z M 3.5 13.480469 C 3.816406 13.714844 4.628906 15.167969 3.910156 15.046875 C 3.5625 14.65625 3.289062 13.988281 3.5 13.480469 Z M 3.960938 15.765625 C 4.507812 15.992188 4.941406 17.503906 4.371094 17.667969 C 3.933594 17.214844 3.691406 16.324219 3.960938 15.765625 Z M 3.960938 15.765625 "/>
<path style=" stroke:none;fill-rule:evenodd;fill:rgb(100%,100%,100%);fill-opacity:1;" d="M 17.496094 19.796875 C 16.679688 20.152344 15.84375 20.535156 14.945312 20.605469 C 14.246094 20.730469 13.371094 21.449219 12.769531 21.214844 C 13.066406 20.835938 14.546875 20.597656 14.296875 20.371094 C 13.367188 20.625 12.4375 20.988281 11.644531 21.535156 C 12.0625 22.351562 13.351562 21.363281 14.089844 21.214844 C 15.078125 21.210938 15.976562 21.007812 16.785156 20.371094 C 16.925781 20.25 17.800781 20.03125 17.496094 19.796875 Z M 17.496094 19.796875 "/>
<path style="fill:none;stroke-width:1;stroke-linecap:butt;stroke-linejoin:bevel;stroke:rgb(0%,0%,0%);stroke-opacity:1;stroke-miterlimit:4;" d="M 63.672257 272.668317 L 108.189347 392.985537 L 98.052628 412.132672 L 74.597387 387.522971 Z M 63.672257 272.668317 " transform="matrix(0.138728,0,0,0.138728,-7.141739,-33.401037)"/>
<path style="fill:none;stroke-width:1;stroke-linecap:butt;stroke-linejoin:bevel;stroke:rgb(0%,0%,0%);stroke-opacity:1;stroke-miterlimit:4;" d="M 63.672257 272.668317 L 108.189347 392.985537 L 165.236547 371.89553 L 189.846248 298.85484 Z M 63.672257 272.668317 " transform="matrix(0.138728,0,0,0.138728,-7.141739,-33.401037)"/>
<path style="fill:none;stroke-width:1;stroke-linecap:butt;stroke-linejoin:bevel;stroke:rgb(0%,0%,0%);stroke-opacity:1;stroke-miterlimit:4;" d="M 63.672257 272.668317 L 182.412654 242.201845 L 212.118872 269.542828 L 189.846248 298.85484 Z M 63.672257 272.668317 " transform="matrix(0.138728,0,0,0.138728,-7.141739,-33.401037)"/>
<path style="fill:none;stroke-width:1;stroke-linecap:butt;stroke-linejoin:bevel;stroke:rgb(0%,0%,0%);stroke-opacity:1;stroke-miterlimit:4;" d="M 165.123917 371.951845 L 212.118872 384.397483 L 212.118872 269.542828 L 189.846248 298.85484 Z M 165.123917 371.951845 " transform="matrix(0.138728,0,0,0.138728,-7.141739,-33.401037)"/>
<path style="fill:none;stroke-width:1;stroke-linecap:butt;stroke-linejoin:bevel;stroke:rgb(0%,0%,0%);stroke-opacity:1;stroke-miterlimit:4;" d="M 98.024471 412.132672 L 108.189347 392.985537 L 165.236547 371.89553 L 212.090714 384.481956 Z M 98.024471 412.132672 " transform="matrix(0.138728,0,0,0.138728,-7.141739,-33.401037)"/>
</g>
</svg>
