<?xml version="1.0" encoding="UTF-8"?>
<svg xmlns="http://www.w3.org/2000/svg" xmlns:xlink="http://www.w3.org/1999/xlink" width="36pt" height="36pt" viewBox="0 0 36 36" version="1.1">
<g id="surface1">
<path style="fill-rule:evenodd;fill:rgb(20%,60%,40%);fill-opacity:1;stroke-width:3;stroke-linecap:butt;stroke-linejoin:bevel;stroke:rgb(0%,0%,0%);stroke-opacity:1;stroke-miterlimit:4;" d="M 182.431426 242.211231 L 63.681643 272.696474 L 74.625545 387.522971 L 98.033856 412.095129 L 98.033856 412.132672 L 98.0714 412.132672 L 212.090714 384.463184 L 212.128257 384.406869 L 212.128257 269.5616 Z M 182.431426 242.211231 " transform="matrix(0.208092,0,0,0.208092,-10.712609,-50.101556)"/>
<path style=" stroke:none;fill-rule:evenodd;fill:rgb(0%,40%,20%);fill-opacity:1;" d="M 22.257812 3.671875 C 21.574219 3.601562 21.496094 4.511719 21.113281 4.710938 C 19.597656 4.5 17.902344 4.171875 16.40625 4.605469 C 15.59375 5.371094 16.644531 6.292969 17.425781 6.449219 C 19.164062 7.039062 20.875 8.824219 22.828125 8.019531 C 23.628906 7.636719 23.171875 6.453125 23.738281 6.011719 C 24.554688 6.167969 26.128906 6.039062 26.003906 4.898438 C 25.390625 3.648438 23.546875 5.136719 22.945312 3.929688 C 22.746094 3.753906 22.53125 3.621094 22.257812 3.671875 Z M 21.214844 6.214844 C 21.269531 6.859375 19.867188 6.019531 20.730469 6.179688 C 20.835938 6.230469 21.183594 6.09375 21.214844 6.214844 Z M 21.214844 6.214844 "/>
<path style=" stroke:none;fill-rule:evenodd;fill:rgb(0%,40%,20%);fill-opacity:1;" d="M 13.804688 12.847656 C 11.6875 13.097656 10.101562 15.140625 10.414062 17.261719 C 10.355469 19.375 12.164062 20.765625 13.574219 22.046875 C 15.394531 23.597656 18.40625 22.648438 19.140625 20.414062 C 20.421875 17.65625 18.328125 14.636719 15.878906 13.398438 C 15.246094 13.046875 14.53125 12.804688 13.804688 12.847656 Z M 14 15.277344 C 15.496094 15.507812 16.855469 16.90625 17.0625 18.398438 C 17.136719 19.558594 15.820312 20.597656 14.785156 19.84375 C 13.390625 19.199219 12.011719 17.570312 12.574219 15.941406 C 12.925781 15.542969 13.46875 15.28125 14 15.277344 Z M 14 15.277344 "/>
<path style=" stroke:none;fill-rule:evenodd;fill:rgb(0%,40%,20%);fill-opacity:1;" d="M 30.847656 16.535156 C 29.71875 18.167969 30.292969 20.308594 30.042969 22.171875 C 30.011719 23.195312 29.992188 24.21875 30.074219 25.242188 C 31.265625 25.921875 31.347656 24.109375 31.863281 23.421875 C 32.398438 22.402344 33.214844 21.3125 33.085938 20.109375 C 32.5625 19.347656 31.761719 20.46875 31.589844 21.015625 C 31.683594 19.53125 32.039062 17.847656 31.457031 16.46875 C 31.253906 16.488281 31.050781 16.511719 30.847656 16.535156 Z M 30.847656 16.535156 "/>
<path style=" stroke:none;fill-rule:evenodd;fill:rgb(0%,40%,20%);fill-opacity:1;" d="M 4.535156 18.867188 C 3.558594 20.65625 5.046875 22.539062 4.875 24.410156 C 5.046875 25.804688 5.441406 27.574219 6.78125 28.230469 C 7.914062 28.199219 7.949219 26.5625 7.769531 25.714844 C 7.132812 23.367188 7.292969 20.472656 5.285156 18.75 C 5.015625 18.585938 4.773438 18.667969 4.535156 18.867188 Z M 6.203125 24.511719 C 6.382812 24.789062 6.632812 25.664062 6.492188 25.695312 C 6.324219 25.355469 6.160156 24.808594 6.203125 24.511719 Z M 6.203125 24.511719 "/>
<path style=" stroke:none;fill-rule:evenodd;fill:rgb(0%,40%,20%);fill-opacity:1;" d="M 25.613281 29.511719 C 24.441406 30.101562 23.171875 30.40625 21.90625 30.613281 C 21.59375 29.691406 20.378906 30.535156 19.742188 30.671875 C 18.816406 31.15625 17.363281 31.386719 17.101562 32.503906 C 17.9375 33.917969 19.75 32.765625 20.832031 32.34375 C 22.445312 32.160156 24.207031 31.972656 25.503906 30.847656 C 26.101562 30.691406 27.246094 30.074219 26.511719 29.375 C 26.160156 29.25 25.921875 29.34375 25.613281 29.511719 Z M 25.613281 29.511719 "/>
<path style=" stroke:none;fill-rule:evenodd;fill:rgb(100%,100%,100%);fill-opacity:1;" d="M 22.371094 4.082031 C 21.472656 4.078125 21.902344 5.546875 20.78125 5.027344 C 19.433594 4.90625 18.0625 4.726562 16.710938 4.886719 C 15.855469 5.75 18.097656 6.097656 18.691406 6.605469 C 19.929688 7.078125 21.050781 8.132812 22.464844 7.742188 C 23.5 7.382812 22.453125 5.222656 24.230469 5.636719 C 24.90625 5.785156 26.417969 5.113281 25.097656 4.746094 C 24.121094 4.824219 23.042969 5.140625 22.566406 4.109375 Z M 21.578125 5.753906 C 21.878906 6.945312 20.917969 7.210938 20.046875 6.445312 C 19.390625 6.128906 17.867188 5.734375 19.449219 5.78125 C 20.160156 5.765625 20.867188 5.761719 21.578125 5.753906 Z M 21.578125 5.753906 "/>
<path style=" stroke:none;fill-rule:evenodd;fill:rgb(100%,100%,100%);fill-opacity:1;" d="M 13.878906 13.257812 C 12.464844 13.492188 11.183594 14.429688 10.90625 15.921875 C 10.714844 17.292969 10.785156 18.863281 11.921875 19.835938 C 13.007812 20.988281 14.207031 22.585938 15.996094 22.371094 C 18.078125 22.324219 19.292969 19.960938 19.117188 18.097656 C 18.738281 16.519531 17.804688 15.078125 16.394531 14.226562 C 15.667969 13.695312 14.804688 13.234375 13.878906 13.257812 Z M 13.90625 14.851562 C 15.347656 14.929688 16.542969 16.117188 17.183594 17.339844 C 18.113281 18.796875 16.710938 21.136719 14.945312 20.363281 C 13.199219 19.714844 11.585938 17.8125 12.113281 15.863281 C 12.480469 15.28125 13.230469 14.914062 13.90625 14.851562 Z M 13.90625 14.851562 "/>
<path style=" stroke:none;fill-rule:evenodd;fill:rgb(100%,100%,100%);fill-opacity:1;" d="M 31.179688 16.78125 C 30.300781 17.851562 30.679688 19.566406 30.488281 20.898438 C 30.46875 22.332031 30.375 23.777344 30.488281 25.207031 C 31.03125 24.464844 31.367188 23.21875 32.03125 22.308594 C 32.339844 21.839844 33.246094 19.328125 32.296875 20.605469 C 31.789062 21.363281 31.519531 22.5 30.761719 22.964844 C 31.308594 21.039062 31.421875 18.984375 31.289062 16.992188 L 31.242188 16.835938 Z M 31.179688 16.78125 "/>
<path style=" stroke:none;fill-rule:evenodd;fill:rgb(100%,100%,100%);fill-opacity:1;" d="M 4.898438 19.070312 C 4.078125 20.402344 5.21875 22.011719 5.210938 23.453125 C 5.296875 25.019531 5.558594 26.847656 6.851562 27.898438 C 7.964844 27.21875 7.167969 25.066406 6.941406 23.886719 C 6.785156 22.269531 6.394531 20.605469 5.335938 19.324219 C 5.21875 19.207031 5.078125 19.058594 4.898438 19.070312 Z M 5.25 20.222656 C 5.726562 20.570312 6.941406 22.753906 5.863281 22.570312 C 5.34375 21.984375 4.933594 20.984375 5.25 20.222656 Z M 5.9375 23.648438 C 6.765625 23.992188 7.410156 26.257812 6.558594 26.503906 C 5.898438 25.824219 5.539062 24.488281 5.9375 23.648438 Z M 5.9375 23.648438 "/>
<path style=" stroke:none;fill-rule:evenodd;fill:rgb(100%,100%,100%);fill-opacity:1;" d="M 26.242188 29.695312 C 25.015625 30.230469 23.761719 30.804688 22.417969 30.910156 C 21.371094 31.09375 20.058594 32.171875 19.152344 31.820312 C 19.601562 31.253906 21.820312 30.898438 21.445312 30.554688 C 20.050781 30.941406 18.660156 31.480469 17.464844 32.304688 C 18.089844 33.527344 20.027344 32.042969 21.132812 31.820312 C 22.617188 31.820312 23.96875 31.507812 25.175781 30.558594 C 25.390625 30.375 26.703125 30.046875 26.242188 29.695312 Z M 26.242188 29.695312 "/>
<path style="fill:none;stroke-width:1;stroke-linecap:butt;stroke-linejoin:bevel;stroke:rgb(0%,0%,0%);stroke-opacity:1;stroke-miterlimit:4;" d="M 63.662871 272.677702 L 108.208119 392.985537 L 98.052628 412.132672 L 74.606773 387.522971 Z M 63.662871 272.677702 " transform="matrix(0.208092,0,0,0.208092,-10.712609,-50.101556)"/>
<path style="fill:none;stroke-width:1;stroke-linecap:butt;stroke-linejoin:bevel;stroke:rgb(0%,0%,0%);stroke-opacity:1;stroke-miterlimit:4;" d="M 63.662871 272.677702 L 108.208119 392.985537 L 165.236547 371.886144 L 189.846248 298.845454 Z M 63.662871 272.677702 " transform="matrix(0.208092,0,0,0.208092,-10.712609,-50.101556)"/>
<path style="fill:none;stroke-width:1;stroke-linecap:butt;stroke-linejoin:bevel;stroke:rgb(0%,0%,0%);stroke-opacity:1;stroke-miterlimit:4;" d="M 63.662871 272.677702 L 182.412654 242.211231 L 212.109486 269.542828 L 189.846248 298.845454 Z M 63.662871 272.677702 " transform="matrix(0.208092,0,0,0.208092,-10.712609,-50.101556)"/>
<path style="fill:none;stroke-width:1;stroke-linecap:butt;stroke-linejoin:bevel;stroke:rgb(0%,0%,0%);stroke-opacity:1;stroke-miterlimit:4;" d="M 165.123917 371.961231 L 212.109486 384.388097 L 212.109486 269.542828 L 189.846248 298.845454 Z M 165.123917 371.961231 " transform="matrix(0.208092,0,0,0.208092,-10.712609,-50.101556)"/>
<path style="fill:none;stroke-width:1;stroke-linecap:butt;stroke-linejoin:bevel;stroke:rgb(0%,0%,0%);stroke-opacity:1;stroke-miterlimit:4;" d="M 98.033856 412.132672 L 108.208119 392.985537 L 165.236547 371.886144 L 212.090714 384.481956 Z M 98.033856 412.132672 " transform="matrix(0.208092,0,0,0.208092,-10.712609,-50.101556)"/>
</g>
</svg>
