<?xml version="1.0" encoding="UTF-8"?>
<svg xmlns="http://www.w3.org/2000/svg" xmlns:xlink="http://www.w3.org/1999/xlink" width="48pt" height="48pt" viewBox="0 0 48 48" version="1.1">
<g id="surface1">
<path style="fill-rule:evenodd;fill:rgb(20%,60%,40%);fill-opacity:1;stroke-width:3;stroke-linecap:butt;stroke-linejoin:bevel;stroke:rgb(0%,0%,0%);stroke-opacity:1;stroke-miterlimit:4;" d="M 182.440812 242.215924 L 63.686336 272.682395 L 74.625545 387.53705 L 98.024471 412.090436 L 98.024471 412.118593 L 98.066707 412.118593 L 212.090714 384.467877 L 212.118872 384.411562 L 212.118872 269.556907 Z M 182.440812 242.215924 " transform="matrix(0.277457,0,0,0.277457,-14.283478,-66.802074)"/>
<path style=" stroke:none;fill-rule:evenodd;fill:rgb(0%,40%,20%);fill-opacity:1;" d="M 29.675781 4.894531 C 28.765625 4.804688 28.660156 6.019531 28.148438 6.28125 C 26.128906 5.996094 23.871094 5.566406 21.871094 6.144531 C 20.789062 7.164062 22.191406 8.386719 23.234375 8.597656 C 25.550781 9.382812 27.832031 11.765625 30.4375 10.695312 C 31.507812 10.179688 30.898438 8.601562 31.652344 8.015625 C 32.738281 8.222656 34.835938 8.054688 34.671875 6.53125 C 33.851562 4.867188 31.398438 6.851562 30.59375 5.242188 C 30.332031 5.003906 30.042969 4.828125 29.675781 4.894531 Z M 28.289062 8.285156 C 28.359375 9.144531 26.492188 8.027344 27.636719 8.238281 C 27.78125 8.308594 28.242188 8.125 28.289062 8.285156 Z M 28.289062 8.285156 "/>
<path style=" stroke:none;fill-rule:evenodd;fill:rgb(0%,40%,20%);fill-opacity:1;" d="M 18.40625 17.128906 C 15.585938 17.460938 13.46875 20.191406 13.886719 23.015625 C 13.808594 25.832031 16.21875 27.6875 18.101562 29.398438 C 20.523438 31.464844 24.542969 30.195312 25.523438 27.222656 C 27.230469 23.542969 24.4375 19.515625 21.171875 17.867188 C 20.328125 17.398438 19.375 17.074219 18.40625 17.128906 Z M 18.664062 20.371094 C 20.660156 20.675781 22.472656 22.542969 22.75 24.53125 C 22.851562 26.078125 21.09375 27.464844 19.714844 26.457031 C 17.855469 25.601562 16.015625 23.429688 16.765625 21.253906 C 17.234375 20.726562 17.960938 20.375 18.664062 20.371094 Z M 18.664062 20.371094 "/>
<path style=" stroke:none;fill-rule:evenodd;fill:rgb(0%,40%,20%);fill-opacity:1;" d="M 41.128906 22.042969 C 39.621094 24.226562 40.390625 27.078125 40.058594 29.5625 C 40.015625 30.925781 39.992188 32.292969 40.097656 33.65625 C 41.6875 34.566406 41.796875 32.144531 42.480469 31.226562 C 43.199219 29.867188 44.285156 28.417969 44.113281 26.8125 C 43.417969 25.800781 42.347656 27.289062 42.117188 28.019531 C 42.246094 26.039062 42.71875 23.796875 41.945312 21.957031 C 41.671875 21.988281 41.402344 22.015625 41.128906 22.042969 Z M 41.128906 22.042969 "/>
<path style=" stroke:none;fill-rule:evenodd;fill:rgb(0%,40%,20%);fill-opacity:1;" d="M 6.050781 25.15625 C 4.742188 27.539062 6.730469 30.050781 6.5 32.542969 C 6.726562 34.402344 7.253906 36.765625 9.039062 37.636719 C 10.550781 37.597656 10.597656 35.417969 10.359375 34.289062 C 9.507812 31.15625 9.722656 27.300781 7.046875 25 C 6.6875 24.78125 6.363281 24.886719 6.050781 25.15625 Z M 8.269531 32.683594 C 8.511719 33.050781 8.847656 34.21875 8.660156 34.261719 C 8.433594 33.804688 8.214844 33.074219 8.269531 32.683594 Z M 8.269531 32.683594 "/>
<path style=" stroke:none;fill-rule:evenodd;fill:rgb(0%,40%,20%);fill-opacity:1;" d="M 34.148438 39.351562 C 32.589844 40.136719 30.894531 40.542969 29.207031 40.816406 C 28.792969 39.585938 27.175781 40.714844 26.320312 40.894531 C 25.089844 41.542969 23.148438 41.847656 22.800781 43.339844 C 23.917969 45.226562 26.335938 43.6875 27.777344 43.121094 C 29.925781 42.882812 32.277344 42.632812 34.003906 41.128906 C 34.800781 40.921875 36.328125 40.097656 35.347656 39.167969 C 34.882812 39 34.5625 39.125 34.148438 39.351562 Z M 34.148438 39.351562 "/>
<path style=" stroke:none;fill-rule:evenodd;fill:rgb(100%,100%,100%);fill-opacity:1;" d="M 29.828125 5.441406 C 28.632812 5.433594 29.203125 7.398438 27.710938 6.699219 C 25.910156 6.542969 24.082031 6.300781 22.28125 6.515625 C 21.140625 7.667969 24.128906 8.128906 24.921875 8.808594 C 26.574219 9.4375 28.066406 10.84375 29.953125 10.320312 C 31.332031 9.84375 29.9375 6.964844 32.308594 7.515625 C 33.210938 7.714844 35.226562 6.820312 33.460938 6.324219 C 32.160156 6.429688 30.726562 6.851562 30.089844 5.476562 Z M 28.769531 7.671875 C 29.171875 9.261719 27.890625 9.617188 26.726562 8.59375 C 25.855469 8.175781 23.824219 7.644531 25.933594 7.707031 C 26.878906 7.691406 27.824219 7.683594 28.769531 7.671875 Z M 28.769531 7.671875 "/>
<path style=" stroke:none;fill-rule:evenodd;fill:rgb(100%,100%,100%);fill-opacity:1;" d="M 18.503906 17.675781 C 16.617188 17.988281 14.914062 19.242188 14.542969 21.226562 C 14.289062 23.058594 14.382812 25.152344 15.894531 26.449219 C 17.34375 27.984375 18.945312 30.117188 21.328125 29.828125 C 24.105469 29.765625 25.726562 26.617188 25.488281 24.132812 C 24.984375 22.023438 23.738281 20.101562 21.859375 18.96875 C 20.890625 18.261719 19.742188 17.644531 18.503906 17.675781 Z M 18.539062 19.800781 C 20.464844 19.90625 22.058594 21.488281 22.910156 23.121094 C 24.152344 25.0625 22.28125 28.183594 19.925781 27.148438 C 17.597656 26.289062 15.449219 23.75 16.152344 21.152344 C 16.640625 20.375 17.640625 19.882812 18.539062 19.800781 Z M 18.539062 19.800781 "/>
<path style=" stroke:none;fill-rule:evenodd;fill:rgb(100%,100%,100%);fill-opacity:1;" d="M 41.570312 22.375 C 40.402344 23.804688 40.90625 26.085938 40.648438 27.863281 C 40.621094 29.777344 40.5 31.703125 40.652344 33.609375 C 41.375 32.617188 41.824219 30.957031 42.707031 29.746094 C 43.121094 29.121094 44.328125 25.773438 43.058594 27.476562 C 42.382812 28.484375 42.023438 30 41.015625 30.617188 C 41.742188 28.050781 41.898438 25.3125 41.71875 22.65625 L 41.65625 22.449219 Z M 41.570312 22.375 "/>
<path style=" stroke:none;fill-rule:evenodd;fill:rgb(100%,100%,100%);fill-opacity:1;" d="M 6.53125 25.429688 C 5.433594 27.199219 6.960938 29.347656 6.949219 31.269531 C 7.0625 33.363281 7.410156 35.796875 9.132812 37.199219 C 10.621094 36.292969 9.554688 33.421875 9.257812 31.847656 C 9.046875 29.695312 8.527344 27.476562 7.113281 25.761719 C 6.960938 25.609375 6.773438 25.414062 6.53125 25.429688 Z M 7 26.964844 C 7.632812 27.425781 9.257812 30.335938 7.820312 30.09375 C 7.128906 29.3125 6.578125 27.980469 7 26.964844 Z M 7.917969 31.53125 C 9.019531 31.988281 9.882812 35.011719 8.746094 35.335938 C 7.863281 34.429688 7.386719 32.648438 7.917969 31.53125 Z M 7.917969 31.53125 "/>
<path style=" stroke:none;fill-rule:evenodd;fill:rgb(100%,100%,100%);fill-opacity:1;" d="M 34.992188 39.59375 C 33.355469 40.308594 31.683594 41.074219 29.890625 41.214844 C 28.496094 41.460938 26.746094 42.898438 25.539062 42.429688 C 26.132812 41.671875 29.09375 41.199219 28.59375 40.742188 C 26.734375 41.253906 24.878906 41.976562 23.285156 43.070312 C 24.121094 44.703125 26.703125 42.722656 28.175781 42.425781 C 30.160156 42.425781 31.957031 42.011719 33.566406 40.746094 C 33.855469 40.5 35.605469 40.0625 34.992188 39.59375 Z M 34.992188 39.59375 "/>
<path style="fill:none;stroke-width:1;stroke-linecap:butt;stroke-linejoin:bevel;stroke:rgb(0%,0%,0%);stroke-opacity:1;stroke-miterlimit:4;" d="M 63.672257 272.668317 L 108.203426 392.985537 L 98.052628 412.132672 L 74.611466 387.522971 Z M 63.672257 272.668317 " transform="matrix(0.277457,0,0,0.277457,-14.283478,-66.802074)"/>
<path style="fill:none;stroke-width:1;stroke-linecap:butt;stroke-linejoin:bevel;stroke:rgb(0%,0%,0%);stroke-opacity:1;stroke-miterlimit:4;" d="M 63.672257 272.668317 L 108.203426 392.985537 L 165.236547 371.89553 L 189.846248 298.840761 Z M 63.672257 272.668317 " transform="matrix(0.277457,0,0,0.277457,-14.283478,-66.802074)"/>
<path style="fill:none;stroke-width:1;stroke-linecap:butt;stroke-linejoin:bevel;stroke:rgb(0%,0%,0%);stroke-opacity:1;stroke-miterlimit:4;" d="M 63.672257 272.668317 L 182.426733 242.201845 L 212.104793 269.542828 L 189.846248 298.840761 Z M 63.672257 272.668317 " transform="matrix(0.277457,0,0,0.277457,-14.283478,-66.802074)"/>
<path style="fill:none;stroke-width:1;stroke-linecap:butt;stroke-linejoin:bevel;stroke:rgb(0%,0%,0%);stroke-opacity:1;stroke-miterlimit:4;" d="M 165.123917 371.965924 L 212.104793 384.397483 L 212.104793 269.542828 L 189.846248 298.840761 Z M 165.123917 371.965924 " transform="matrix(0.277457,0,0,0.277457,-14.283478,-66.802074)"/>
<path style="fill:none;stroke-width:1;stroke-linecap:butt;stroke-linejoin:bevel;stroke:rgb(0%,0%,0%);stroke-opacity:1;stroke-miterlimit:4;" d="M 98.038549 412.132672 L 108.203426 392.985537 L 165.236547 371.89553 L 212.090714 384.467877 Z M 98.038549 412.132672 " transform="matrix(0.277457,0,0,0.277457,-14.283478,-66.802074)"/>
</g>
</svg>
